<svg id="Space_Icons" data-name="Space Icons" xmlns="http://www.w3.org/2000/svg" viewBox="0 0 128 128"><defs><style>.cls-1{fill:#2d3666;}.cls-2{fill:#78d5dd;}.cls-3{fill:#48bbc7;}.cls-4{fill:#9ae0e6;}.cls-5{fill:#a8eff3;}.cls-6{fill:#e8f3ff;}.cls-7{fill:#ffdca1;}.cls-8{fill:#ffe5b9;}.cls-9{fill:#78bfa0;}.cls-10{fill:#a8d6b0;}.cls-11{fill:#ffc675;}.cls-12{fill:#48a890;}.cls-13{fill:#b8daf2;}</style></defs><title>Artboard 1</title><path class="cls-1" d="M26.4,101.93a3.11,3.11,0,0,1-.77-1.27,6.49,6.49,0,0,1-.3-2.1,21.73,21.73,0,0,1,1.88-7.75,81.06,81.06,0,0,1,9.63-16.5,161.44,161.44,0,0,1,16.43-19,149.82,149.82,0,0,1,25-20.48,66.53,66.53,0,0,1,10.55-5.58,21.73,21.73,0,0,1,7.75-1.88,6.49,6.49,0,0,1,2.1.3,3.11,3.11,0,0,1,1.27.77,2,2,0,0,0,2.83-2.83A7.2,7.2,0,0,0,100,23.84a10.5,10.5,0,0,0-3.39-.51,25.65,25.65,0,0,0-9.25,2.17A85.15,85.15,0,0,0,70,35.6,166.45,166.45,0,0,0,50.44,52.44a154.1,154.1,0,0,0-21,25.68A71.42,71.42,0,0,0,23.5,89.31a25.65,25.65,0,0,0-2.17,9.25,10.5,10.5,0,0,0,.51,3.39,7.2,7.2,0,0,0,1.73,2.81,2,2,0,0,0,2.83-2.83"/><path class="cls-2" d="M63.17,29.33A35.84,35.84,0,1,1,27.33,65.17,35.83,35.83,0,0,1,63.17,29.33"/><path class="cls-3" d="M64,30.19a35.79,35.79,0,0,0-29.08,14.9c1.79.19,4.83.79,6.17,2.62a4.32,4.32,0,0,1,.87.89,3.69,3.69,0,0,1,1.46,2.15,10.55,10.55,0,0,0,.3,1.06h0A7.2,7.2,0,0,0,44.27,53l.07,0a35.78,35.78,0,0,1,24.88-13.9,9.06,9.06,0,0,1-1-4.3c0-1.41.39-2.87-.08-4.2l0-.23A35.58,35.58,0,0,0,64,30.19"/><path class="cls-4" d="M51.26,99a35.78,35.78,0,0,0,11.9,2h0a35.78,35.78,0,0,1-11.9-2M36.42,89h0M99,65.17A35.85,35.85,0,0,1,73.79,99.4,35.83,35.83,0,0,0,99,65.17h0m0-.1v0M99,65v0"/><path class="cls-5" d="M89.17,44.09A35.85,35.85,0,0,1,56.84,95.41,36.06,36.06,0,0,1,46.6,93.93a23.56,23.56,0,0,0,4.34,4.93h0l.32.12A35.84,35.84,0,0,0,99,65.17V65a35.75,35.75,0,0,0-5.42-18.78c-.32-.43-.65-.86-1-1.28l-.06,0a17.73,17.73,0,0,0-3.36-.8"/><path class="cls-1" d="M29.74,107a8.34,8.34,0,0,1-6.17-2.25,2,2,0,1,1,2.83-2.83c1.61,1.62,5.52,1.38,10.72-.65A2,2,0,0,1,38.58,105,25.13,25.13,0,0,1,29.74,107Z"/><path class="cls-1" d="M88.31,62.91a2,2,0,0,1-1.23-.42,2,2,0,0,1-.35-2.81c12.8-16.41,16.33-28.16,13.21-31.29a2,2,0,1,1,2.82-2.82c5.51,5.5.7,19.17-12.87,36.57A2,2,0,0,1,88.31,62.91Z"/><path class="cls-1" d="M67.12,86.45a2,2,0,0,1-.55-3.92l18.12-5.26a2,2,0,0,1,2.48,1.37,2,2,0,0,1-1.37,2.47L67.68,86.37A2.1,2.1,0,0,1,67.12,86.45Z"/><path class="cls-1" d="M67.13,86.45a2.07,2.07,0,0,1-.35,0,2,2,0,0,1-1.63-2.31l3.22-18.6a2,2,0,1,1,3.94.69L69.1,84.79A2,2,0,0,1,67.13,86.45Z"/><path class="cls-1" d="M71.12,82a2,2,0,0,1-1.48-3.34L80.31,66.72a2,2,0,0,1,2.82-.16,2,2,0,0,1,.16,2.83L72.62,81.31A2,2,0,0,1,71.12,82Z"/><circle class="cls-6" cx="67.79" cy="83.7" r="8" transform="translate(-4.53 3.88) rotate(-3.17)"/><path class="cls-7" d="M68.27,29.69A35.82,35.82,0,0,1,92.78,45c-3.9-1.41-7.29-1.13-10.45-.85-2.94.27-5.67.53-8.42-.58a9.35,9.35,0,0,1-5.69-8.69c0-1.41.39-2.87-.08-4.2l.13-1"/><path class="cls-8" d="M89,40.32A36.13,36.13,0,0,1,92.78,45h0l.09.13.17.12.81.57-.12-.19c-.1-.12-.19-.25-.28-.37-.34-.45-.69-.9-1.06-1.33l-.16-.19c-.36-.43-.74-.86-1.13-1.27L91,42.37c-.38-.42-.78-.82-1.19-1.21l-.12-.11,0,0c-.22-.24-.45-.48-.68-.71"/><path class="cls-9" d="M92.57,44.91l0,0,.28.18L92.78,45l-.21-.07"/><path class="cls-10" d="M92.53,44.89l.06,0,0,0,0,0"/><path class="cls-11" d="M69.13,30.55l-.13,1c.47,1.33.11,2.79.08,4.2a8.51,8.51,0,0,0,.3,2.46l.71,0c0,.3.1.61.18.91C71.11,39,72,39,72.81,39a36,36,0,0,1,5.11.36l.25,0,.7.11c1,.18,2.08.4,3.1.67.51.14,1,.28,1.52.44l.89.29c.8.27,1.6.57,2.38.9l1.22.55c.37.17.73.34,1.09.53s.84.44,1.25.67c.16.08.31.17.46.26s.57.33.84.51.54.33.81.52l.1.06,0,0,.21.07h0A36.13,36.13,0,0,0,89,40.32l-.06,0-.12-.11c-.38-.37-.77-.73-1.16-1.07l-.25-.22c-.37-.32-.75-.63-1.13-.94-.56-.44-1.13-.87-1.73-1.29l-1.3-.87A35.77,35.77,0,0,0,78,33l-.66-.27a32.36,32.36,0,0,0-3.86-1.29l-.83-.22L72,31.07l-.86-.19-.14,0-.87-.16-.88-.14h-.07"/><path class="cls-7" d="M50.88,55.17c3.23,1.65,4.66,5.41-1.55,14.25-7,9.92-8.33,20.75,1.61,29.44A35.85,35.85,0,0,1,33.54,45s7.28,0,8.15,4c1.25,5.69,5.06,4.06,9.19,6.17"/><path class="cls-9" d="M41.41,48.22a2.9,2.9,0,0,1,.28.78c.5,2.27,1.41,3.38,2.58,4a6.47,6.47,0,0,1-.53-1.21l-.32.39a7.86,7.86,0,0,1-.87-2.34A3.22,3.22,0,0,0,42,48.6a4.35,4.35,0,0,0-.57-.38"/><path class="cls-12" d="M41.11,47.71a3.25,3.25,0,0,1,.3.51,4.35,4.35,0,0,1,.57.38,3.22,3.22,0,0,1,.57,1.26,7.86,7.86,0,0,0,.87,2.34l.32-.39a10.55,10.55,0,0,1-.3-1.06A3.69,3.69,0,0,0,42,48.6a4.32,4.32,0,0,0-.87-.89"/><path class="cls-8" d="M38.2,90.88l.08.08c.23.24.48.47.72.7l.17.19c.46.47.93.93,1.42,1.38a35.93,35.93,0,0,0,3.23,2.66h0c-.24-.33-.48-.67-.71-1a36.42,36.42,0,0,1-4.92-4"/><path class="cls-11" d="M34.4,45.86l-.09.13-.6.91c-.24.38-.47.77-.7,1.17s-.43.76-.64,1.14c-.41.77-.79,1.56-1.15,2.36-.17.41-.35.81-.51,1.22a36,36,0,0,0-1.91,6.62c-.07.37-.14.74-.19,1.12s-.13.9-.18,1.35q-.16,1.35-.21,2.73v0q0,.69,0,1.38h0c0,.4,0,.81,0,1.21s0,.52,0,.77,0,.25,0,.37c0,.3,0,.59.07.88l0,.23c0,.46.09.91.16,1.36q0,.44.12.87c.07.47.16.93.25,1.39s.16.76.25,1.14c.2.87.44,1.73.71,2.58.07.23.14.45.22.67s.1.3.16.46.17.5.27.75l.39,1c.18.42.36.84.55,1.25s.35.74.53,1.11c.39.78.81,1.54,1.26,2.29.12.2.24.4.37.6s.33.53.5.8.39.58.6.87c.37.52.75,1,1.15,1.55.21.26.41.52.63.77.55.66,1.12,1.3,1.72,1.93a36.42,36.42,0,0,0,4.92,4v0L43,94.74c-.44-.65-.85-1.31-1.25-2-.11-.18-.21-.37-.31-.56-.2-.34-.38-.69-.56-1s-.38-.76-.55-1.14c-.4-.85-.77-1.71-1.1-2.6-.14-.36-.27-.72-.39-1.09s-.17-.5-.24-.75-.21-.65-.3-1c-.25-.89-.47-1.79-.65-2.7-.09-.46-.18-.92-.25-1.39s-.14-.93-.2-1.4c-.1-.9-.18-1.81-.21-2.73,0-.52,0-1,0-1.56h0c0-.46,0-.93,0-1.39s0-.83.07-1.25V72c0-.45.08-.89.13-1.34s.09-.73.14-1.09a2.34,2.34,0,0,1,0-.26c.06-.4.13-.8.2-1.19,0-.11,0-.22.07-.33.07-.37.15-.75.24-1.12v0c.1-.41.2-.82.32-1.23s.17-.63.27-1,.13-.45.21-.68.17-.53.27-.79a5.89,5.89,0,0,1,.21-.59c.22-.59.45-1.17.7-1.75.1-.24.2-.48.32-.71l0,0q.44-1,.93-1.89c.19-.36.39-.71.59-1.06l0-.08c.21-.36.42-.71.64-1.06l.17-.28.58-.87c.36-.53.73-1,1.12-1.56l0-.07c-1.17-.64-2.08-1.75-2.58-4a2.9,2.9,0,0,0-.28-.78,3.25,3.25,0,0,0-.3-.51c-2.38-1.83-6.71-1.85-6.71-1.85"/><path class="cls-1" d="M63.16,103a37.6,37.6,0,0,1-12.91-2.26A38.14,38.14,0,0,1,34.93,90.35a37.83,37.83,0,0,1,28.23-63,38.42,38.42,0,0,1,5.39.38A37.89,37.89,0,0,1,94.43,43.85c.24.35.48.73.72,1.1l.12.19A37.84,37.84,0,0,1,63.16,103Zm0-71.67A33.84,33.84,0,1,0,91.88,47.27l-.11-.19c-.21-.32-.41-.64-.63-.95A33.89,33.89,0,0,0,68,31.67,33.49,33.49,0,0,0,63.16,31.33Z"/><path class="cls-1" d="M92.78,47a2,2,0,0,1-.68-.12c-3.53-1.28-6.67-1-9.71-.73s-6.07.55-9.23-.73a11.3,11.3,0,0,1-6.94-10.59c0-.44,0-.89.09-1.33a5.55,5.55,0,0,0-.06-2.15A2,2,0,0,1,70,30a8.79,8.79,0,0,1,.26,3.83c0,.36-.06.72-.07,1.08a7.35,7.35,0,0,0,4.44,6.8c2.26.91,4.63.7,7.38.45,3.31-.3,7.06-.63,11.42,1A2,2,0,0,1,92.78,47Z"/><path class="cls-1" d="M50.94,100.86a2,2,0,0,1-1.32-.49c-9.78-8.55-10.46-20-1.93-32.1,4-5.7,4.14-8.42,3.86-9.54A2.66,2.66,0,0,0,50,57a13.62,13.62,0,0,0-3.3-1.06c-2-.47-4.35-1-5.84-3.54a9.67,9.67,0,0,1-1.09-2.91c-.39-1.8-4.43-2.43-6.21-2.44a2,2,0,0,1,0-4h0c.91,0,8.91.19,10.09,5.57a6.4,6.4,0,0,0,.63,1.74c.6,1,1.45,1.25,3.3,1.68a17.33,17.33,0,0,1,4.22,1.4,6.7,6.7,0,0,1,3.65,4.38c.79,3.2-.67,7.39-4.47,12.8-5.1,7.25-9,17.78,1.29,26.78a2,2,0,0,1-1.32,3.51Z"/><path class="cls-13" d="M75.13,80.5A8,8,0,0,0,64.57,91a8,8,0,1,1,8.56-13.28A8.1,8.1,0,0,1,75.13,80.5Z"/><path class="cls-1" d="M67.79,93.7a10,10,0,1,1,7.45-3.33A10,10,0,0,1,67.79,93.7Zm0-16h-.34a6,6,0,1,0,.34,0Z"/></svg>